<?xml version="1.0" standalone="no"?>
<!DOCTYPE svg PUBLIC "-//W3C//DTD SVG 20010904//EN"
 "http://www.w3.org/TR/2001/REC-SVG-20010904/DTD/svg10.dtd">
<svg version="1.0" xmlns="http://www.w3.org/2000/svg"
 width="225.000000pt" height="225.000000pt" viewBox="0 0 225.000000 225.000000"
 preserveAspectRatio="xMidYMid meet">

<g transform="translate(0.000000,225.000000) scale(0.100000,-0.100000)"
fill="#000000" stroke="none">
<path d="M222 1806 c3 -198 5 -217 24 -242 40 -54 70 -68 150 -72 l74 -4 0 30
c0 28 -2 29 -56 35 -64 7 -101 27 -114 63 -6 14 -10 111 -10 215 l0 189 -36 0
-35 0 3 -214z"/>
<path d="M420 1990 l0 -30 65 0 65 0 2 -232 3 -233 35 -3 35 -3 -3 236 -3 235
71 0 70 0 0 30 0 30 -170 0 -170 0 0 -30z"/>
<path d="M2130 1924 c0 -2 11 -9 25 -14 14 -5 30 -20 35 -32 6 -15 9 -17 9 -7
1 9 -7 23 -16 31 -19 16 -53 31 -53 22z"/>
<path d="M2085 1900 c-26 -28 -15 -31 12 -3 12 13 19 23 14 23 -4 0 -16 -9
-26 -20z"/>
<path d="M1360 1880 c0 -25 4 -30 25 -30 21 0 25 5 25 30 0 25 -4 30 -25 30
-21 0 -25 -5 -25 -30z"/>
<path d="M2112 1855 c0 -22 2 -32 5 -22 2 9 8 17 13 17 5 0 14 -8 20 -17 11
-17 11 -17 6 -1 -3 10 -1 20 4 23 13 8 13 35 0 35 -5 0 -7 -7 -4 -15 4 -10 0
-15 -14 -15 -11 0 -23 8 -25 18 -3 9 -5 -1 -5 -23z"/>
<path d="M2060 1858 c0 -31 43 -78 58 -63 3 3 0 5 -6 5 -7 0 -21 15 -32 33
-11 17 -20 29 -20 25z"/>
<path d="M2191 1838 c-1 -9 -11 -24 -23 -32 -12 -9 -18 -16 -12 -16 17 0 47
38 41 52 -4 9 -6 7 -6 -4z"/>
<path d="M780 1803 c-37 -14 -60 -47 -60 -85 0 -45 18 -60 100 -82 75 -19 88
-25 94 -42 24 -62 -119 -89 -146 -28 -7 15 -20 24 -35 24 -26 0 -28 -8 -12
-44 36 -77 216 -71 242 8 20 60 -21 107 -106 120 -81 13 -117 65 -61 86 41 16
62 12 95 -19 32 -31 59 -31 59 -2 0 34 -46 64 -102 67 -29 2 -60 1 -68 -3z"/>
<path d="M1108 1799 c-16 -6 -28 -15 -28 -20 0 -6 -5 -7 -10 -4 -6 4 -8 11 -5
16 4 5 -5 9 -19 9 l-26 0 0 -210 0 -210 25 0 c23 0 24 3 23 63 -1 93 -1 91 28
68 55 -44 154 -17 191 51 37 70 15 187 -42 224 -31 20 -101 27 -137 13z m92
-44 c39 -20 52 -48 52 -106 0 -82 -51 -131 -116 -112 -44 12 -70 54 -70 112 0
94 63 143 134 106z"/>
<path d="M1555 1803 c-29 -8 -66 -43 -81 -80 -20 -46 -17 -122 4 -162 53 -99
213 -92 248 12 13 36 12 37 -12 37 -17 0 -27 -8 -34 -24 -11 -30 -47 -56 -78
-56 -105 0 -127 197 -25 230 41 14 89 -1 98 -31 8 -23 55 -27 55 -4 0 8 -13
29 -28 46 -23 26 -37 32 -78 35 -27 1 -58 0 -69 -3z"/>
<path d="M1861 1793 c-48 -25 -73 -63 -79 -121 -6 -63 10 -111 49 -148 27 -26
37 -29 94 -29 68 0 94 14 121 67 14 27 13 28 -10 28 -14 0 -30 -10 -40 -25
-34 -51 -134 -37 -157 22 -19 50 -9 55 111 51 l110 -3 0 28 c0 106 -109 178
-199 130z m120 -51 c9 -9 20 -27 24 -39 6 -23 5 -23 -84 -23 -50 0 -91 2 -91
5 0 19 34 67 53 75 29 13 78 4 98 -18z"/>
<path d="M1360 1640 l0 -150 25 0 25 0 0 150 0 150 -25 0 -25 0 0 -150z"/>
<path d="M875 1252 c-169 -60 -301 -224 -383 -479 -80 -244 -230 -442 -392
-517 l-55 -26 571 0 572 0 36 69 36 69 -152 4 c-140 3 -158 5 -208 29 -76 36
-124 80 -156 145 -24 50 -26 62 -22 147 4 75 12 110 42 192 54 142 129 294
172 343 34 40 35 42 12 42 -13 -1 -45 -9 -73 -18z"/>
<path d="M1027 1200 l-38 -70 130 0 c188 0 293 -38 361 -132 65 -89 67 -219 6
-383 -54 -145 -129 -293 -172 -344 l-38 -44 48 6 c58 8 151 56 211 109 87 77
185 248 230 404 62 214 245 443 403 505 47 18 41 18 -528 18 l-575 1 -38 -70z"/>
</g>
</svg>
